<svg id="visual" viewBox="0 0 960 540" width="960" height="540" xmlns="http://www.w3.org/2000/svg" xmlns:xlink="http://www.w3.org/1999/xlink" version="1.1"><path d="M0 463L137 429L274 466L411 461L549 425L686 451L823 461L960 453L960 541L823 541L686 541L549 541L411 541L274 541L137 541L0 541Z" fill="#3e2341"></path><path d="M0 470L137 459L274 482L411 468L549 446L686 483L823 446L960 456L960 541L823 541L686 541L549 541L411 541L274 541L137 541L0 541Z" fill="#2a1e39"></path><path d="M0 493L137 492L274 502L411 509L549 496L686 491L823 482L960 498L960 541L823 541L686 541L549 541L411 541L274 541L137 541L0 541Z" fill="#17182f"></path></svg>