<svg id="visual" viewBox="0 0 960 540" width="960" height="540" xmlns="http://www.w3.org/2000/svg" xmlns:xlink="http://www.w3.org/1999/xlink" version="1.1"><path d="M0 17L80 18C160 19 320 21 480 20.2C640 19.3 800 15.7 880 13.8L960 12L960 0L880 0C800 0 640 0 480 0C320 0 160 0 80 0L0 0Z" fill="#1a1129"></path><path d="M0 39L80 41.7C160 44.3 320 49.7 480 51.5C640 53.3 800 51.7 880 50.8L960 50L960 10L880 11.8C800 13.7 640 17.3 480 18.2C320 19 160 17 80 16L0 15Z" fill="#251632"></path><path d="M0 71L80 81.8C160 92.7 320 114.3 480 118.8C640 123.3 800 110.7 880 104.3L960 98L960 48L880 48.8C800 49.7 640 51.3 480 49.5C320 47.7 160 42.3 80 39.7L0 37Z" fill="#301c3a"></path><path d="M0 82L80 95.5C160 109 320 136 480 143.2C640 150.3 800 137.7 880 131.3L960 125L960 96L880 102.3C800 108.7 640 121.3 480 116.8C320 112.3 160 90.7 80 79.8L0 69Z" fill="#3d2142"></path><path d="M0 195L80 204C160 213 320 231 480 245.5C640 260 800 271 880 276.5L960 282L960 123L880 129.3C800 135.7 640 148.3 480 141.2C320 134 160 107 80 93.5L0 80Z" fill="#4a264a"></path><path d="M0 325L80 329.5C160 334 320 343 480 343.8C640 344.7 800 337.3 880 333.7L960 330L960 280L880 274.5C800 269 640 258 480 243.5C320 229 160 211 80 202L0 193Z" fill="#572b51"></path><path d="M0 368L80 369.8C160 371.7 320 375.3 480 376.3C640 377.3 800 375.7 880 374.8L960 374L960 328L880 331.7C800 335.3 640 342.7 480 341.8C320 341 160 332 80 327.5L0 323Z" fill="#653157"></path><path d="M0 422L80 420.2C160 418.3 320 414.7 480 415.7C640 416.7 800 422.3 880 425.2L960 428L960 372L880 372.8C800 373.7 640 375.3 480 374.3C320 373.3 160 369.7 80 367.8L0 366Z" fill="#73365d"></path><path d="M0 465L80 464.2C160 463.3 320 461.7 480 457.2C640 452.7 800 445.3 880 441.7L960 438L960 426L880 423.2C800 420.3 640 414.7 480 413.7C320 412.7 160 416.3 80 418.2L0 420Z" fill="#813c63"></path><path d="M0 509L80 505.3C160 501.7 320 494.3 480 490.7C640 487 800 487 880 487L960 487L960 436L880 439.7C800 443.3 640 450.7 480 455.2C320 459.7 160 461.3 80 462.2L0 463Z" fill="#904267"></path><path d="M0 519L80 518.2C160 517.3 320 515.7 480 513C640 510.3 800 506.7 880 504.8L960 503L960 485L880 485C800 485 640 485 480 488.7C320 492.3 160 499.7 80 503.3L0 507Z" fill="#9e486b"></path><path d="M0 541L80 541C160 541 320 541 480 541C640 541 800 541 880 541L960 541L960 501L880 502.8C800 504.7 640 508.3 480 511C320 513.7 160 515.3 80 516.2L0 517Z" fill="#ad4e6f"></path></svg>